<svg width="86" height="14" viewBox="0 0 86 14" fill="none" xmlns="http://www.w3.org/2000/svg">
<path d="M46.1873 0.98584H45.4623L40.1802 10.0641L34.898 0.98584H34.173L32.1533 13.038H34.173L35.4158 5.42062L39.8694 13.038H40.6462L45.0481 5.52497L46.1873 13.038H48.207L46.1873 0.98584Z" fill="#8C8C8C"/>
<path d="M58.4607 2.23805C57.8911 1.66413 57.1661 1.29892 56.3893 1.1424C55.3018 0.985874 54.2661 0.9337 53.1785 0.985874H50.1232V13.038H52.1946V7.71631H52.816C54.0071 7.76848 55.1982 7.66413 56.3375 7.50761C57.1661 7.35109 57.8911 6.98587 58.5125 6.41196C59.0304 5.83805 59.3411 5.10761 59.2893 4.325C59.2893 3.95979 59.2375 3.5424 59.0822 3.22935C58.9786 2.86413 58.7714 2.55109 58.4607 2.23805ZM57.2179 4.325C57.2179 4.63805 57.1143 5.00327 56.9071 5.26413C56.7 5.525 56.3893 5.7337 56.0268 5.83805C55.4054 5.99457 54.7321 6.04674 54.1107 6.04674H52.1428V2.70761H54.2143C54.8357 2.70761 55.4571 2.75979 56.0786 2.86413C56.3893 2.96848 56.7 3.17718 56.9071 3.43805C57.1143 3.69892 57.2179 4.01196 57.2179 4.325Z" fill="#8C8C8C"/>
<path d="M61.1536 0.98584V13.038H63.1732V0.98584H61.1536Z" fill="#8C8C8C"/>
<path d="M22.6765 0.98584V13.038H31.0659V11.3163H24.6962V7.6641H31.1176V5.99454H24.6962V5.73367V2.70758H31.1176V0.98584H22.6765Z" fill="#8C8C8C"/>
<path d="M77.1037 0.98584V13.038H85.493V11.3163H79.1234V7.6641H85.5448V5.99454H79.1234V5.73367V2.70758H85.5448V0.98584H77.1037Z" fill="#8C8C8C"/>
<path d="M75.9126 13.038L71.7697 7.35106L71.8733 7.29888C72.4429 7.09019 72.909 6.82932 73.3751 6.41193C73.8929 5.83801 74.2036 5.10758 74.1519 4.32497C74.1519 3.95975 74.1001 3.54236 73.9447 3.22932C73.7894 2.8641 73.5822 2.55106 73.3233 2.29019C72.7536 1.71627 72.0286 1.35106 71.2518 1.19454C70.1643 1.03801 69.0768 0.98584 68.0411 0.98584H64.9857V13.038H67.0054V7.71628H67.6268C68.3 7.71628 68.9215 7.71628 69.4393 7.6641L73.3751 13.038H75.9126ZM67.0572 5.99454V2.70758H69.1286C69.75 2.65541 70.3715 2.75975 70.9929 2.8641C71.3036 2.96845 71.6143 3.17714 71.8215 3.43801C72.0286 3.69888 72.1322 4.01193 72.1322 4.32497C72.1322 4.63801 72.0286 5.00323 71.8215 5.2641C71.6143 5.52497 71.3036 5.73367 70.9929 5.83801C70.3715 5.99454 69.6982 6.04671 69.0768 6.04671L67.0572 5.99454Z" fill="#8C8C8C"/>
<path d="M2.79065 7.97714H10.3514L11.2836 6.77714L10.5068 5.73367H2.79065V4.84671V3.22932H8.48712L8.22819 2.81193L6.88175 0.98584H0.0977783V13.0902H2.79065V9.0728V7.97714Z" fill="black"/>
<path d="M18.9997 9.49018L17.239 7.2467L15.7372 9.22931L18.7408 13.0902H21.7962L18.9997 9.49018Z" fill="black"/>
<path d="M21.4855 0.98584H18.4301L15.6854 4.53367L17.1872 6.51627L21.4855 0.98584Z" fill="black"/>
<path d="M13.8211 3.75106L11.7496 0.98584H8.69426L13.1997 6.82932L8.38354 13.0902H11.4389L14.7014 8.81193L16.2032 6.82932L13.8211 3.75106Z" fill="black"/>
</svg>
