<svg width="86" height="14" viewBox="0 0 86 14" fill="none" xmlns="http://www.w3.org/2000/svg">
<g id="Group">
<path id="Vector" d="M46.1873 0.931152H45.4623L40.1802 10.0094L34.898 0.931152H34.173L32.1533 12.9833H34.173L35.4158 5.36594L39.8694 12.9833H40.6462L45.0481 5.47028L46.1873 12.9833H48.207L46.1873 0.931152Z" fill="#051D40"/>
<path id="Vector_2" d="M58.4607 2.18336C57.8911 1.60945 57.1661 1.24423 56.3893 1.08771C55.3018 0.931186 54.2661 0.879012 53.1785 0.931186H50.1232V12.9834H52.1946V7.66162H52.816C54.0071 7.71379 55.1982 7.60945 56.3375 7.45293C57.1661 7.2964 57.8911 6.93119 58.5125 6.35727C59.0304 5.78336 59.3411 5.05293 59.2893 4.27032C59.2893 3.9051 59.2375 3.48771 59.0822 3.17466C58.9786 2.80945 58.7714 2.4964 58.4607 2.18336ZM57.2179 4.27032C57.2179 4.58336 57.1143 4.94858 56.9071 5.20945C56.7 5.47032 56.3893 5.67901 56.0268 5.78336C55.4054 5.93988 54.7321 5.99206 54.1107 5.99206H52.1428V2.65293H54.2143C54.8357 2.65293 55.4571 2.7051 56.0786 2.80945C56.3893 2.91379 56.7 3.12249 56.9071 3.38336C57.1143 3.64423 57.2179 3.95727 57.2179 4.27032Z" fill="#051D40"/>
<path id="Vector_3" d="M61.1536 0.931152V12.9833H63.1732V0.931152H61.1536Z" fill="#051D40"/>
<path id="Vector_4" d="M22.6765 0.931152V12.9833H31.0659V11.2616H24.6962V7.60941H31.1176V5.93985H24.6962V5.67898V2.65289H31.1176V0.931152H22.6765Z" fill="#051D40"/>
<path id="Vector_5" d="M77.1036 0.931152V12.9833H85.493V11.2616H79.1233V7.60941H85.5448V5.93985H79.1233V5.67898V2.65289H85.5448V0.931152H77.1036Z" fill="#051D40"/>
<path id="Vector_6" d="M75.9126 12.9833L71.7697 7.29637L71.8733 7.2442C72.4429 7.0355 72.909 6.77463 73.3751 6.35724C73.8929 5.78333 74.2036 5.05289 74.1519 4.27028C74.1519 3.90507 74.1001 3.48767 73.9447 3.17463C73.7894 2.80941 73.5822 2.49637 73.3233 2.2355C72.7536 1.66159 72.0286 1.29637 71.2518 1.13985C70.1643 0.983326 69.0768 0.931152 68.0411 0.931152H64.9857V12.9833H67.0054V7.66159H67.6268C68.3 7.66159 68.9215 7.66159 69.4393 7.60941L73.3751 12.9833H75.9126ZM67.0572 5.93985V2.65289H69.1286C69.75 2.60072 70.3715 2.70507 70.9929 2.80941C71.3036 2.91376 71.6143 3.12246 71.8215 3.38333C72.0286 3.6442 72.1322 3.95724 72.1322 4.27028C72.1322 4.58333 72.0286 4.94854 71.8215 5.20941C71.6143 5.47028 71.3036 5.67898 70.9929 5.78333C70.3715 5.93985 69.6982 5.99202 69.0768 5.99202L67.0572 5.93985Z" fill="#051D40"/>
<path id="Vector_7" d="M2.79065 7.92246H10.3514L11.2836 6.72246L10.5068 5.67898H2.79065V4.79202V3.17463H8.48712L8.22819 2.75724L6.88175 0.931152H0.0977783V13.0355H2.79065V9.01811V7.92246Z" fill="#67B230"/>
<path id="Vector_8" d="M18.9997 9.43549L17.239 7.19202L15.7372 9.17463L18.7408 13.0355H21.7962L18.9997 9.43549Z" fill="#67B230"/>
<path id="Vector_9" d="M21.4855 0.931152H18.4301L15.6854 4.47898L17.1872 6.46159L21.4855 0.931152Z" fill="#67B230"/>
<path id="Vector_10" d="M13.8211 3.69637L11.7496 0.931152H8.69426L13.1997 6.77463L8.38354 13.0355H11.4389L14.7014 8.75724L16.2032 6.77463L13.8211 3.69637Z" fill="#67B230"/>
</g>
</svg>
