<svg width="60" height="60" viewBox="0 0 60 60" fill="none" xmlns="http://www.w3.org/2000/svg">
<path d="M30.0203 16.3703C37.1993 16.3703 43.669 17.8669 48.3219 20.258C53.0062 22.6652 55.6905 25.8834 55.6905 29.2703C55.6905 32.6571 53.0062 35.8754 48.3219 38.2825C43.669 40.6736 37.1993 42.1703 30.0203 42.1703C22.8412 42.1703 16.3715 40.6736 11.7186 38.2825C7.03436 35.8754 4.35 32.6571 4.35 29.2703C4.35 25.8834 7.03436 22.6652 11.7186 20.258C16.3715 17.8669 22.8412 16.3703 30.0203 16.3703Z" fill="url(#paint0_linear_7_5099)" fill-opacity="0.8" stroke="white" stroke-width="1.2"/>
<circle cx="30" cy="30" r="26.4" stroke="white" stroke-width="1.2"/>
<path d="M42.9 30.0203C42.9 37.1993 41.4034 43.669 39.0123 48.3219C36.6051 53.0062 33.3869 55.6905 30 55.6905C26.6131 55.6905 23.3949 53.0062 20.9877 48.3219C18.5966 43.669 17.1 37.1993 17.1 30.0203C17.1 22.8412 18.5966 16.3715 20.9877 11.7186C23.3949 7.03436 26.6131 4.35 30 4.35C33.3869 4.35 36.6051 7.03436 39.0123 11.7186C41.4034 16.3715 42.9 22.8412 42.9 30.0203Z" stroke="white" stroke-width="1.2"/>
<defs>
<linearGradient id="paint0_linear_7_5099" x1="56.0183" y1="15.6304" x2="55.5127" y2="39.9803" gradientUnits="userSpaceOnUse">
<stop stop-color="#7A95FF" stop-opacity="0.29"/>
<stop offset="1" stop-color="#3760FF"/>
</linearGradient>
</defs>
</svg>
