<svg width="196" height="23" viewBox="0 0 196 23" fill="none" xmlns="http://www.w3.org/2000/svg">
<path d="M195.979 0.377699C195.95 0.320207 195.921 0.248342 195.877 0.205223C195.833 0.162103 195.775 0.118984 195.702 0.0902383C195.643 0.0614922 195.57 0.0471191 195.497 0.0471191H179.328C179.255 0.0471191 179.196 0.0614922 179.138 0.0902383C179.079 0.118984 179.021 0.162103 178.977 0.205223C178.933 0.248342 178.904 0.305834 178.875 0.377699C178.846 0.449564 178.846 0.507056 178.846 0.564549V1.15384C178.846 1.2832 178.904 1.41256 178.992 1.4988C179.079 1.58503 179.211 1.64253 179.342 1.64253H186.587V22.4978C186.587 22.6272 186.646 22.7565 186.733 22.8428C186.821 22.929 186.952 22.9865 187.084 22.9865H187.756C187.814 22.9865 187.887 22.9721 187.946 22.9434C188.004 22.9146 188.062 22.8859 188.106 22.8428C188.15 22.7996 188.194 22.7421 188.209 22.6847C188.223 22.6272 188.252 22.5553 188.252 22.4978V1.61378H195.497C195.556 1.61378 195.629 1.59941 195.687 1.57066C195.746 1.54192 195.804 1.51317 195.848 1.47005C195.892 1.42693 195.935 1.36944 195.95 1.31195C195.979 1.25445 195.994 1.19696 195.994 1.1251V0.578922C196.009 0.507056 195.994 0.449564 195.979 0.377699Z" fill="#F1F4F7"/>
<path d="M154.452 0.00317383C153.999 0.00317383 153.546 0.0894121 153.123 0.290635C152.714 0.491857 152.348 0.779318 152.071 1.13864L144.957 10.2224L137.873 1.15302C137.596 0.793691 137.23 0.50623 136.821 0.305008C136.412 0.103785 135.945 0.00317383 135.492 0.00317383H134.966L143.964 11.5016L134.966 23H135.463C135.916 23 136.369 22.9138 136.792 22.7126C137.201 22.5114 137.566 22.2239 137.844 21.8646L144.972 12.7808L152.071 21.8502C152.348 22.2095 152.714 22.497 153.137 22.6982C153.561 22.8994 154.014 23 154.481 23H154.992L145.98 11.5016L154.978 0.00317383H154.452Z" fill="#F1F4F7"/>
<path d="M171.498 11.3002L171.177 11.5014L171.498 11.717C171.864 11.9614 172.2 12.2344 172.506 12.5506C173.631 13.7005 174.259 15.2384 174.259 16.8338C174.259 18.4292 173.631 19.9959 172.506 21.1457C171.382 22.2956 169.833 22.928 168.212 22.9855H161.069H159.871C159.74 22.9855 159.608 22.928 159.521 22.8417C159.433 22.7555 159.375 22.6261 159.375 22.4968V0.491673C159.375 0.362316 159.433 0.23296 159.521 0.146721C159.608 0.060482 159.74 0.00299072 159.871 0.00299072H160.879L168.197 0.0173626C168.197 0.0173626 168.679 0.0317345 168.723 0.0461082C170.155 0.218584 171.484 0.851 172.477 1.87148C173.602 3.02133 174.23 4.60236 174.23 6.19777C174.23 7.79317 173.602 9.33109 172.477 10.4809C172.2 10.7828 171.864 11.0559 171.498 11.3002ZM168.226 21.3613C169.41 21.3182 170.52 20.8295 171.338 19.9959C172.156 19.1622 172.608 17.998 172.608 16.8338C172.608 15.6696 172.156 14.5485 171.338 13.7149C170.534 12.8956 169.468 12.4069 168.314 12.3494H161.084V21.3613H168.226ZM171.338 3.02133C170.534 2.20206 169.468 1.71338 168.314 1.65589H161.069V10.6822L168.212 10.6965C168.226 10.6965 168.241 10.6965 168.27 10.6965C169.439 10.639 170.534 10.1504 171.338 9.31672C172.156 8.48308 172.608 7.36198 172.608 6.19777C172.608 5.03355 172.156 3.85496 171.338 3.02133Z" fill="#F1F4F7"/>
<path d="M117.38 0.00317383H105.841H103.475H101.415C101.284 0.00317383 101.167 0.060666 101.065 0.146904C100.977 0.233142 100.918 0.3625 100.918 0.491857V8.5695C100.918 8.69886 100.977 8.82822 101.065 8.91446C101.152 9.0007 101.284 9.05819 101.415 9.05819H105.841C105.972 9.05819 106.089 9.0007 106.191 8.91446C106.279 8.82822 106.338 8.69886 106.338 8.5695V4.58817L117.38 4.60255C117.512 4.60255 117.643 4.54505 117.731 4.45882C117.818 4.3582 117.877 4.24322 117.877 4.09949V0.50623C117.877 0.376873 117.818 0.247515 117.731 0.146904C117.643 0.060666 117.512 0.00317383 117.38 0.00317383Z" fill="#F1F4F7"/>
<path d="M117.38 18.5437H106.338V14.433C106.338 14.3037 106.279 14.1743 106.191 14.0881C106.104 14.0018 105.972 13.9443 105.841 13.9443H101.415C101.284 13.9443 101.167 14.0018 101.065 14.0881C100.977 14.1743 100.918 14.3037 100.918 14.433V22.5107C100.918 22.64 100.977 22.7694 101.065 22.8556C101.152 22.9419 101.284 22.9993 101.415 22.9993H105.841C105.856 22.9993 105.885 22.9993 105.899 22.9993H117.38C117.512 22.9993 117.643 22.9419 117.731 22.8556C117.818 22.7694 117.877 22.64 117.877 22.5107V19.018C117.877 18.8887 117.818 18.7737 117.731 18.6731C117.643 18.6012 117.512 18.5437 117.38 18.5437Z" fill="#F1F4F7"/>
<path d="M110.661 13.9434C110.792 13.9434 110.909 13.8859 111.012 13.7996C111.099 13.699 111.158 13.584 111.158 13.4403V9.55957C111.158 9.43022 111.099 9.30086 111.012 9.20025C110.924 9.09964 110.792 9.05652 110.661 9.05652H106.819C106.688 9.05652 106.571 9.11401 106.469 9.20025C106.381 9.30086 106.323 9.41584 106.323 9.55957V13.4403C106.323 13.5697 106.381 13.699 106.469 13.7996C106.556 13.9002 106.688 13.9434 106.819 13.9434H110.661Z" fill="#F1F4F7"/>
<path d="M93.4831 0.146904C93.4392 0.103785 93.3808 0.060666 93.3224 0.0462929C93.264 0.0175469 93.1909 0.00317383 93.1325 0.00317383H90.0359H88.7066H88.3561C88.2684 0.00317383 88.1808 0.0319199 88.1078 0.075039C88.0347 0.118158 87.9763 0.17565 87.9325 0.261889L81.71 11.3435L75.4291 0.261889C75.3853 0.190023 75.3268 0.118158 75.2392 0.075039C75.1662 0.0319199 75.0785 0.00317383 74.9909 0.00317383H74.8594H73.2819H70.4482C70.3167 0.00317383 70.1999 0.060666 70.0976 0.146904C70.01 0.233142 69.9515 0.3625 69.9515 0.491857V22.497C69.9515 22.6263 70.01 22.7557 70.0976 22.8419C70.1852 22.9282 70.3167 22.9857 70.4482 22.9857H74.874C75.0055 22.9857 75.1223 22.9282 75.2246 22.8419C75.3122 22.7557 75.3707 22.6263 75.3707 22.497L75.356 11.0992L81.301 21.4334C81.3448 21.5052 81.4033 21.5771 81.4909 21.6202C81.5639 21.6633 81.6516 21.6921 81.7538 21.6921C81.7538 21.6921 81.7538 21.6921 81.7684 21.6921C81.7684 21.6921 81.7684 21.6921 81.783 21.6921C81.8707 21.6921 81.9583 21.6633 82.046 21.6202C82.119 21.5771 82.192 21.5052 82.2212 21.4334L88.2246 10.7686V22.5114C88.2246 22.6407 88.283 22.7701 88.3707 22.8563C88.4583 22.9425 88.5898 23 88.7212 23H93.1471C93.2786 23 93.3954 22.9425 93.4977 22.8563C93.5853 22.7701 93.6437 22.6407 93.6437 22.5114V0.491857C93.6437 0.419992 93.6291 0.3625 93.5999 0.305008C93.5707 0.247515 93.5269 0.190023 93.4831 0.146904Z" fill="#F1F4F7"/>
<path d="M62.196 0.00317383H57.7264C57.5949 0.00317383 57.4634 0.060666 57.3758 0.146904C57.2882 0.233142 57.2297 0.3625 57.2297 0.491857V8.627C57.2297 8.75635 57.2882 8.88571 57.3758 8.97195C57.4634 9.05819 57.5949 9.11568 57.7264 9.11568H62.196C62.3275 9.11568 62.459 9.05819 62.5466 8.97195C62.6342 8.88571 62.6927 8.75635 62.6927 8.627V0.50623C62.6927 0.376873 62.6342 0.247515 62.5466 0.161277C62.459 0.075039 62.3275 0.00317383 62.196 0.00317383Z" fill="#F1F4F7"/>
<path d="M62.196 13.9725H57.7264C57.5949 13.9725 57.4634 14.03 57.3758 14.1163C57.2882 14.2025 57.2297 14.3319 57.2297 14.4612V22.4957C57.2297 22.6251 57.2882 22.7545 57.3758 22.8407C57.4634 22.9269 57.5949 22.9844 57.7264 22.9844H62.196C62.3275 22.9844 62.459 22.9269 62.5466 22.8407C62.6342 22.7545 62.6927 22.6251 62.6927 22.4957V14.4612C62.6927 14.3319 62.6342 14.2025 62.5466 14.1163C62.459 14.03 62.3275 13.9725 62.196 13.9725Z" fill="#F1F4F7"/>
<path d="M47.3695 2.67592C46.4639 1.79917 45.383 1.10926 44.1853 0.649323C43.0021 0.189386 41.7313 -0.0262097 40.4605 0.00253642H35.874H35.056H31.3313C31.1998 0.00253642 31.0684 0.0600286 30.9661 0.146267C30.8639 0.232505 30.8201 0.361862 30.8201 0.49122V22.4963C30.8201 22.6257 30.8785 22.7551 30.9661 22.8413C31.0538 22.9275 31.1852 22.985 31.3313 22.985H35.874C36.0055 22.985 36.1369 22.9275 36.2246 22.8413C36.3122 22.7551 36.3706 22.6257 36.3706 22.4963V18.8312H37.101H38.0212C38.7954 18.8312 39.5549 19.1762 40.11 19.7223L42.5639 22.137C42.8414 22.4101 43.1628 22.6257 43.5134 22.7694C43.8639 22.9132 44.2583 22.985 44.6381 22.985H48.5819C48.6842 22.985 48.7718 22.9563 48.8594 22.8988C48.9471 22.8413 49.0055 22.7694 49.0493 22.6832C49.0931 22.597 49.0931 22.4963 49.0785 22.3957C49.0639 22.2951 49.0055 22.2089 48.9471 22.1514L44.7257 17.9545C45.7044 17.5089 46.5954 16.9052 47.3695 16.1578C48.2752 15.2811 49.0055 14.2318 49.5021 13.0676C49.9988 11.9034 50.2471 10.6673 50.2471 9.4025C50.2471 8.13768 49.9988 6.90159 49.5021 5.73738C49.0055 4.60191 48.2752 3.55268 47.3695 2.67592ZM45.237 11.3716C44.974 11.9753 44.5943 12.5358 44.1122 12.9958C43.6302 13.4557 43.0605 13.815 42.4325 14.045C41.8044 14.275 41.1325 14.3899 40.4605 14.3612H39.9639H37.101H36.3706V4.45818H40.4605C41.1325 4.42943 41.8044 4.60191 42.4325 4.83188C43.0605 5.06185 43.6302 5.42117 44.1122 5.88111C44.5943 6.34105 44.974 6.88722 45.237 7.50526C45.4999 8.1233 45.6313 8.77009 45.6313 9.43125C45.6459 10.1068 45.4999 10.7679 45.237 11.3716Z" fill="#F1F4F7"/>
<path d="M4.84945 9.58915C4.84945 9.45979 4.79102 9.33043 4.70338 9.24419C4.61574 9.15796 4.48428 9.10046 4.35282 9.10046H0.49663C0.365169 9.10046 0.233708 9.15796 0.146068 9.24419C0.0584271 9.33043 0 9.45979 0 9.58915V13.398C0 13.5274 0.0584271 13.6567 0.146068 13.743C0.233708 13.8292 0.365169 13.8867 0.49663 13.8867H4.36743C4.49889 13.8867 4.63035 13.8292 4.71799 13.743C4.80563 13.6567 4.86406 13.5274 4.86406 13.398V9.58915H4.84945Z" fill="#F1F4F7"/>
<path d="M21.516 13.9723C21.4429 13.9291 21.3699 13.9148 21.2823 13.9148L10.3126 13.9004H5.36089C5.22943 13.9004 5.09797 13.9579 5.01033 14.0441C4.92268 14.1304 4.86426 14.2597 4.86426 14.3891V22.5098C4.86426 22.6392 4.92268 22.7686 5.01033 22.8548C5.09797 22.941 5.22943 22.9985 5.36089 22.9985H9.83056C9.96202 22.9985 10.0935 22.941 10.1811 22.8548C10.2688 22.7686 10.3272 22.6392 10.3272 22.5098V18.931C10.3272 18.8016 10.3856 18.6722 10.4733 18.586C10.5609 18.4998 10.6924 18.4423 10.8238 18.4423H14.2418C15.7025 18.4135 17.1339 18.0398 18.4193 17.3787C19.7047 16.7031 20.8295 15.7545 21.6767 14.5903C21.7205 14.5184 21.7497 14.4466 21.7497 14.3747C21.7497 14.3028 21.7351 14.2166 21.6913 14.1447C21.6474 14.0729 21.589 14.0154 21.516 13.9723Z" fill="#F1F4F7"/>
<path d="M16.0238 0.00317383H5.36089C5.22943 0.00317383 5.09797 0.060666 5.01033 0.146904C4.92268 0.233142 4.86426 0.3625 4.86426 0.491857V8.627C4.86426 8.75635 4.92268 8.88571 5.01033 8.97195C5.09797 9.05819 5.22943 9.11568 5.36089 9.11568H9.83056C9.96202 9.11568 10.0935 9.05819 10.1811 8.97195C10.2688 8.88571 10.3272 8.75635 10.3272 8.627V5.01936C10.3272 4.89001 10.3856 4.76065 10.4733 4.67441C10.5609 4.58817 10.6924 4.53068 10.8238 4.53068H14.6362C17.3238 4.53068 17.9665 7.39092 18.1418 8.52639C18.1418 8.65574 18.2002 8.7851 18.2879 8.88571C18.3755 8.98632 18.507 9.04382 18.6384 9.04382H23.1081C23.1812 9.04382 23.2396 9.02944 23.298 9.0007C23.3564 8.97195 23.4149 8.9432 23.4587 8.88571C23.5025 8.84259 23.5317 8.7851 23.5609 8.71323C23.5901 8.64137 23.5901 8.58388 23.5901 8.52639C23.1958 4.77502 20.3767 0.00317383 16.0238 0.00317383Z" fill="#F1F4F7"/>
</svg>
