<svg width="102" height="24" viewBox="0 0 102 24" fill="none" xmlns="http://www.w3.org/2000/svg">
<g id="Group">
<path id="Vector" d="M24.2857 12C24.2857 18.6271 19.0087 24 12.4999 24C5.9904 24 0.714233 18.6271 0.714233 12C0.714233 5.37209 5.9908 0 12.4999 0C19.0087 0 24.2857 5.3725 24.2857 12Z" fill="#DA552F"/>
<path id="Vector_2" d="M14.072 12H10.733V8.4H14.072C14.3042 8.4 14.5341 8.44656 14.7485 8.53702C14.963 8.62748 15.1579 8.76006 15.3221 8.92721C15.4862 9.09435 15.6165 9.29278 15.7053 9.51117C15.7941 9.72956 15.8399 9.96362 15.8399 10.2C15.8399 10.4364 15.7941 10.6704 15.7053 10.8888C15.6165 11.1072 15.4862 11.3056 15.3221 11.4728C15.1579 11.6399 14.963 11.7725 14.7485 11.863C14.5341 11.9534 14.3042 12 14.072 12ZM14.072 6H8.37585V18H10.733V14.4H14.072C16.3502 14.4 18.197 12.5196 18.197 10.2C18.197 7.88044 16.3502 6 14.072 6Z" fill="white"/>
<path id="Vector_3" d="M36.6669 10.5334C36.6669 9.87305 36.1687 9.47291 35.5213 9.47291H33.7861V11.5815H35.5217C36.1691 11.5815 36.6669 11.1814 36.6669 10.5334ZM32.1428 15.9999V8H35.7523C37.4307 8 38.344 9.15486 38.344 10.5334C38.344 11.9 37.419 13.0544 35.7523 13.0544H33.7861V15.9999H32.1428ZM39.3444 15.9999V10.1677H40.8128V10.9335C41.2179 10.4386 41.9011 10.0265 42.5956 10.0265V11.4871C42.4908 11.4637 42.3638 11.4523 42.1905 11.4523C41.7044 11.4523 41.0559 11.7346 40.8128 12.1007V15.9999H39.3444ZM47.5388 13.0073C47.5388 12.1237 47.0285 11.3579 46.1031 11.3579C45.1885 11.3579 44.6803 12.1237 44.6803 13.0077C44.6803 13.9027 45.1885 14.6685 46.1031 14.6685C47.0285 14.6685 47.5388 13.9027 47.5388 13.0073ZM43.1522 13.0073C43.1522 11.3936 44.2631 10.0265 46.1031 10.0265C47.9548 10.0265 49.0656 11.3932 49.0656 13.0073C49.0656 14.6213 47.9548 15.9999 46.1031 15.9999C44.2631 15.9999 43.1522 14.6213 43.1522 13.0073ZM54.0105 14.0205V12.0059C53.7674 11.6283 53.2354 11.3579 52.7489 11.3579C51.9049 11.3579 51.326 12.0293 51.326 13.0077C51.326 13.9967 51.9049 14.6685 52.7489 14.6685C53.2354 14.6685 53.7674 14.3981 54.0105 14.0205ZM54.0105 15.9999V15.1282C53.5703 15.6933 52.9694 15.9999 52.2862 15.9999C50.8863 15.9999 49.8101 14.9164 49.8101 13.0073C49.8101 11.158 50.8633 10.0265 52.2862 10.0265C52.9456 10.0265 53.5703 10.3097 54.0105 10.8982V8H55.4914V15.9999H54.0105ZM60.7256 15.9999V15.1397C60.3443 15.564 59.6732 15.9999 58.7586 15.9999C57.5325 15.9999 56.9541 15.3166 56.9541 14.2089V10.1677H58.4229V13.62C58.4229 14.4096 58.8279 14.6685 59.4527 14.6685C60.0194 14.6685 60.4713 14.3505 60.7256 14.0201V10.1677H62.1952V15.9999H60.7256ZM63.2988 13.0073C63.2988 11.2639 64.5483 10.0265 66.2613 10.0265C67.4069 10.0265 68.1009 10.5334 68.4714 11.0517L67.5104 11.9702C67.2448 11.5696 66.8397 11.3579 66.3307 11.3579C65.4395 11.3579 64.8151 12.0178 64.8151 13.0077C64.8151 13.9967 65.4395 14.6685 66.3307 14.6685C66.8397 14.6685 67.2448 14.433 67.5104 14.0439L68.4714 14.9632C68.1009 15.4815 67.4069 15.9999 66.2613 15.9999C64.5483 15.9999 63.2988 14.7629 63.2988 13.0073ZM69.735 14.433V11.4757H68.8095V10.1677H69.735V8.61231H71.205V10.1677H72.338V11.4757H71.205V14.0324C71.205 14.3977 71.3892 14.6685 71.7136 14.6685C71.9329 14.6685 72.1425 14.586 72.2223 14.4921L72.5355 15.6342C72.3158 15.8353 71.922 15.9999 71.3086 15.9999C70.2787 15.9999 69.735 15.4581 69.735 14.433ZM81.7512 15.9999V12.5476H78.1059V15.9999H76.4638V8H78.1059V11.0866H81.7512V8.00041H83.4058V15.9999H81.7512ZM88.6647 15.9999V15.1397C88.283 15.564 87.6119 15.9999 86.6977 15.9999C85.4712 15.9999 84.8928 15.3166 84.8928 14.2089V10.1677H86.3615V13.62C86.3615 14.4096 86.7666 14.6685 87.3918 14.6685C87.9585 14.6685 88.4103 14.3505 88.6647 14.0201V10.1677H90.1343V15.9999H88.6647ZM95.3669 15.9999V12.4187C95.3669 11.6291 94.963 11.3583 94.3375 11.3583C93.7591 11.3583 93.3197 11.6882 93.0646 12.0182V16.0003H91.5958V10.1677H93.0646V10.8982C93.4237 10.4743 94.1178 10.0265 95.0203 10.0265C96.2585 10.0265 96.8486 10.7332 96.8486 11.8405V15.9999H95.3673H95.3669ZM98.5995 14.433V11.4757H97.6749V10.1677H98.5999V8.61231H100.07V10.1677H101.203V11.4757H100.07V14.0324C100.07 14.3977 100.254 14.6685 100.579 14.6685C100.798 14.6685 101.007 14.586 101.088 14.4921L101.4 15.6342C101.181 15.8353 100.787 15.9999 100.173 15.9999C99.1436 15.9999 98.5995 15.4581 98.5995 14.433Z" fill="#DA552F"/>
</g>
</svg>
