<svg width="60" height="60" viewBox="0 0 60 60" fill="none" xmlns="http://www.w3.org/2000/svg">
<g id="test icon">
<g id="Group">
<path id="Ellipse" d="M45.2023 15.8817C44.8758 15.8253 44.5653 16.0443 44.5089 16.3708C44.4525 16.6974 44.6715 17.0078 44.998 17.0642L45.2023 15.8817ZM13.1813 27.6682L13.585 28.112L13.1813 27.6682ZM19.4586 23.4972C19.5313 23.1739 19.3281 22.8529 19.0048 22.7803L13.7362 21.5961C13.4129 21.5235 13.0919 21.7267 13.0193 22.05C12.9466 22.3733 13.1498 22.6943 13.4731 22.7669L18.1563 23.8195L17.1037 28.5027C17.0311 28.826 17.2342 29.147 17.5575 29.2196C17.8808 29.2923 18.2018 29.0891 18.2745 28.7658L19.4586 23.4972ZM51.9246 21.3739C53.2425 24.2 52.1987 27.9798 49.084 31.9046C45.9943 35.798 40.9784 39.673 34.7584 42.5735L35.2656 43.661C41.6178 40.699 46.7957 36.7186 50.024 32.6506C53.2273 28.6141 54.6256 24.3267 53.0122 20.8667L51.9246 21.3739ZM34.7584 42.5735C28.5385 45.4739 22.3459 46.8255 17.3773 46.6897C12.3687 46.5529 8.8022 44.9228 7.48436 42.0967L6.39679 42.6039C8.01021 46.0638 12.1933 47.7485 17.3446 47.8893C22.5359 48.0311 28.9134 46.6231 35.2656 43.661L34.7584 42.5735ZM44.998 17.0642C48.4603 17.6623 50.8863 19.1471 51.9246 21.3739L53.0122 20.8667C51.7397 18.1379 48.8602 16.5137 45.2023 15.8817L44.998 17.0642ZM7.48436 42.0967C6.62869 40.2617 6.76341 38.0343 7.82805 35.6013C8.89292 33.1677 10.868 30.5835 13.585 28.112L12.7775 27.2243C9.97744 29.7714 7.88064 32.4877 6.72869 35.1203C5.5765 37.7534 5.34944 40.3578 6.39679 42.6039L7.48436 42.0967ZM13.585 28.112C15.21 26.6339 17.0939 25.202 19.1941 23.8726L18.5523 22.8587C16.3979 24.2224 14.4578 25.6959 12.7775 27.2243L13.585 28.112Z" fill="white"/>
<path id="Star" d="M45.1379 6.6001C45.1379 11.9947 40.7647 16.3679 35.3701 16.3679C40.7647 16.3679 45.1379 20.7411 45.1379 26.1357C45.1379 20.7411 49.5111 16.3679 54.9057 16.3679C49.5111 16.3679 45.1379 11.9947 45.1379 6.6001Z" fill="url(#paint0_linear_7_5104)" fill-opacity="0.8"/>
</g>
</g>
<defs>
<linearGradient id="paint0_linear_7_5104" x1="55.007" y1="26.0345" x2="37.4099" y2="25.3235" gradientUnits="userSpaceOnUse">
<stop stop-color="#3760FF"/>
<stop offset="1" stop-color="#6481F3"/>
</linearGradient>
</defs>
</svg>
