<svg width="63" height="60" viewBox="0 0 63 60" fill="none" xmlns="http://www.w3.org/2000/svg">
<path d="M9.73838 48.9678C4.35999 42.8749 9.62028 29.4435 21.4876 18.9678C33.3549 8.49219 47.3353 4.93926 52.7137 11.0322" stroke="white" stroke-width="2.2"/>
<path d="M39.9444 26.3302C39.9443 22.4145 39.5399 19.1195 38.7137 16.4617C37.9076 13.8152 36.7411 11.7658 35.1793 10.3709C33.6297 8.97191 31.7888 8.26869 29.6855 8.26869C26.5107 8.26869 23.9908 9.87079 22.147 12.9309C20.3079 15.983 19.4184 20.4761 19.4016 26.3295V26.3312C19.4016 30.2971 19.7976 33.6405 20.6058 36.346L20.6071 36.3503C21.4297 39.0297 22.6042 41.1036 24.1652 42.5151L24.168 42.5176C25.7334 43.9152 27.5818 44.6186 29.6855 44.6186C32.8791 44.6186 35.4076 42.9978 37.2507 39.9039C39.0893 36.8176 39.9612 32.2658 39.9444 26.3302ZM39.9444 26.3302C39.9444 26.3306 39.9444 26.3309 39.9444 26.3312H39.3444M39.9444 26.3302C39.9444 26.33 39.9444 26.3298 39.9444 26.3295L39.3444 26.3312M39.3444 26.3312C39.3444 22.4507 38.943 19.2196 38.1402 16.6382M39.3444 26.3312C39.3611 32.2271 38.4914 36.6489 36.7353 39.5968C34.9791 42.5447 32.6292 44.0187 29.6855 44.0187C27.7287 44.0187 26.0227 43.3691 24.5676 42.07L38.1402 16.6382M38.1402 16.6382C37.3541 14.0567 36.2335 12.1164 34.7784 10.8173L38.1402 16.6382ZM9.53775 26.333V26.3312C9.53775 20.8089 10.3575 16.138 11.974 12.3004C13.6076 8.46171 15.921 5.57217 18.9028 3.59809L18.9034 3.59767C21.9017 1.60722 25.4868 0.6 29.6855 0.6C33.8843 0.6 37.4604 1.60725 40.4413 3.59685L40.4426 3.59767C43.4422 5.589 45.7641 8.48775 47.3975 12.3263L47.3979 12.3272C49.03 16.1465 49.8499 20.8076 49.8333 26.3294V26.3312C49.8333 31.8869 49.0052 36.6001 47.3713 40.4886L47.3705 40.4906C45.7526 44.38 43.446 47.3197 40.4627 49.3429C37.4829 51.3639 33.9004 52.3871 29.6869 52.3873C25.4731 52.3708 21.8809 51.3397 18.8831 49.3179C15.8996 47.2944 13.5846 44.3544 11.95 40.4646C10.3327 36.5763 9.52119 31.8716 9.53775 26.333Z" fill="url(#paint0_linear_7_5072)" fill-opacity="0.8" stroke="white" stroke-width="1.2"/>
<path d="M9.73822 48.9679C15.1166 55.0608 29.097 51.5079 40.9643 41.0322C52.8316 30.5566 58.0919 17.1251 52.7135 11.0322" stroke="white" stroke-width="2.2"/>
<circle cx="49.1566" cy="31.2816" r="3.192" fill="white"/>
<defs>
<linearGradient id="paint0_linear_7_5072" x1="50.6486" y1="52.7103" x2="13.2466" y2="51.5269" gradientUnits="userSpaceOnUse">
<stop stop-color="#7A95FF" stop-opacity="0.29"/>
<stop offset="1" stop-color="#3760FF"/>
</linearGradient>
</defs>
</svg>
